<?xml version="1.0" encoding="iso-8859-1"?>
<!-- Generator: Adobe Illustrator 19.0.0, SVG Export Plug-In . SVG Version: 6.00 Build 0)  -->
<svg xmlns="http://www.w3.org/2000/svg" xmlns:xlink="http://www.w3.org/1999/xlink" version="1.1" id="Capa_1" x="0px" y="0px" viewBox="0 0 489.5 489.5" style="enable-background:new 0 0 489.5 489.5;" xml:space="preserve" width="512px" height="512px">
<g>
	<path d="M370.75,0h-252v40.3h-86.2v66.2c0,47.6,38.6,86.2,86.2,86.2h11.2c10.8,23.8,28.7,43.6,51,56.8   c23.4,13.8,37.2,39.6,37.2,66.8v52.3h-30.9c-9.5,0-17.3,7.7-17.3,17.3v22.7h-26.4v80.9h202.3v-80.9h-26.4v-22.7   c0-9.5-7.7-17.3-17.3-17.3h-30.9v-52.3c0-27.2,13.8-53,37.2-66.8c22.3-13.1,40.3-33,51-56.8h11.3c47.6,0,86.2-38.6,86.2-86.2V40.4   h-86.2V0z M118.75,149.1c-23.5,0-42.6-19.1-42.6-42.6V84h42.6v56.8c0,2.8,0.1,5.5,0.3,8.2h-0.3V149.1z M279.75,412.5v43.3h-70   v-43.3H279.75z M301.95,113.3l-25.9,21.8l8.1,32.9c1.5,6.2-5.2,11.1-10.7,7.7l-28.7-17.8l-28.8,17.9c-5.4,3.4-12.2-1.6-10.7-7.7   l8.1-32.9l-25.9-21.8c-4.9-4.1-2.3-12.1,4.1-12.5l33.8-2.5l12.8-31.4c2.4-5.9,10.8-5.9,13.2,0l12.8,31.4l33.8,2.5   C304.25,101.3,306.85,109.2,301.95,113.3z M413.35,84v22.5c0,23.5-19.1,42.6-42.6,42.6h-0.3c0.2-2.7,0.3-5.5,0.3-8.2V84H413.35z" fill="#FFFFFF"/>
</g>
<g>
</g>
<g>
</g>
<g>
</g>
<g>
</g>
<g>
</g>
<g>
</g>
<g>
</g>
<g>
</g>
<g>
</g>
<g>
</g>
<g>
</g>
<g>
</g>
<g>
</g>
<g>
</g>
<g>
</g>
</svg>
