<?xml version="1.0"?>
<svg xmlns="http://www.w3.org/2000/svg" height="512px" viewBox="-21 -22 682.66683 682" width="512px"><path d="m625.003906 92.90625-292.351562-90.734375c-8.242188-2.5625-17.070313-2.5625-25.3125 0l-292.34375 90.734375c-8.941406 2.742188-15.0312502 11.015625-14.996094 20.371094v56.136718c0 11.78125 9.550781 21.332032 21.332031 21.332032v21.332031c.007813 8.621094 5.1875 16.386719 13.140625 19.695313-3.394531 8.09375-3.289062 17.230468.277344 25.246093 3.570312 8.019531 10.300781 14.207031 18.585938 17.101563v217.253906c-12.738282 4.507812-21.28125 16.53125-21.332032 30.039062v13.632813c-6.582031 3.78125-10.644531 10.78125-10.671875 18.371094v21.332031c-11.78125 0-21.332031 9.550781-21.332031 21.332031v32c0 5.890625 4.777344 10.667969 10.667969 10.667969h618.664062c5.890625 0 10.667969-4.777344 10.667969-10.667969v-32c-.023438-7.585937-4.085938-14.589843-10.667969-18.367187v-24.296875c0-11.78125-9.550781-21.339844-21.335937-21.339844v-10.664063c-.050782-13.507812-8.59375-25.53125-21.332032-30.039062v-217.253906c8.042969-2.730469 14.640626-8.59375 18.285157-16.261719 3.648437-7.667969 4.039062-16.484375 1.085937-24.441406h1.960938c11.785156 0 21.335937-9.554688 21.335937-21.339844v-24.296875c6.582031-3.777344 10.644531-10.78125 10.667969-18.367188v-56.136718c.035156-9.355469-6.054688-17.628906-14.996094-20.371094zm-603.671875 20.371094 292.332031-90.734375c4.125-1.277344 8.539063-1.277344 12.660157 0l292.34375 90.734375v56.136718h-597.335938zm448 120.140625v10.664062c.058594 13.511719 8.59375 25.53125 21.335938 30.039063v217.253906c-12.742188 4.507812-21.277344 16.53125-21.335938 30.039062v10.664063h-298.664062v-10.664063c-.058594-13.507812-8.59375-25.53125-21.335938-30.039062v-217.253906c12.742188-4.507813 21.277344-16.527344 21.335938-30.039063v-10.664062zm96 255.996093h-53.332031v-213.332031h53.332031zm-490.664062-213.332031h53.332031v213.332031h-53.332031zm74.664062-32c0 5.894531-4.777343 10.667969-10.664062 10.667969h-74.667969c-5.890625 0-10.664062-4.773438-10.664062-10.667969 0-5.890625 4.773437-10.664062 10.664062-10.664062h85.332031zm-95.996093 277.332031c0-5.890624 4.773437-10.667968 10.664062-10.667968h74.667969c5.886719 0 10.664062 4.777344 10.664062 10.667968v10.664063h-95.996093zm-10.667969 32.003907h565.328125v21.332031h-565.328125zm576 64h-597.335938v-21.335938h597.335938zm-128-85.339844v-10.664063c0-5.890624 4.777343-10.667968 10.664062-10.667968h74.667969c5.890625 0 10.664062 4.777344 10.664062 10.667968v10.664063zm95.996093-287.996094c0 5.894531-4.773437 10.667969-10.664062 10.667969h-74.667969c-5.886719 0-10.664062-4.773438-10.664062-10.667969v-10.664062h85.332031c5.890625 0 10.664062 4.773437 10.664062 10.664062zm21.332032-32.003906h-565.328125v-21.332031h565.328125zm0 0" fill="#172554"/><path d="m53.335938 148.082031h533.328124c6-.265625 10.714844-5.226562 10.667969-11.230469.007813-4.664062-3.015625-8.789062-7.464843-10.1875l-263.5625-81.792968c-4.117188-1.277344-8.527344-1.277344-12.640626 0l-263.53125 81.792968c-4.449218 1.398438-7.472656 5.523438-7.464843 10.1875v.566407c0 5.886719 4.773437 10.664062 10.667969 10.664062zm266.664062-82.828125 198.144531 61.492188h-396.277343zm0 0" fill="#172554"/><path d="m320 510.746094c70.691406 0 127.996094-57.304688 127.996094-127.996094 0-70.695312-57.304688-128-127.996094-128s-127.996094 57.304688-127.996094 128c.070313 70.65625 57.335938 127.921875 127.996094 127.996094zm0-234.664063c58.910156 0 106.664062 47.753907 106.664062 106.667969 0 58.910156-47.753906 106.664062-106.664062 106.664062s-106.664062-47.753906-106.664062-106.664062c.0625-58.882812 47.78125-106.601562 106.664062-106.667969zm0 0" fill="#172554"/><path d="m298.667969 414.75c0-5.894531-4.777344-10.667969-10.667969-10.667969s-10.664062 4.773438-10.664062 10.667969c.070312 19.394531 13.214843 36.300781 31.996093 41.152344v1.515625c0 5.886719 4.777344 10.664062 10.667969 10.664062 5.894531 0 10.667969-4.777343 10.667969-10.664062v-1.515625c18.820312-4.789063 31.988281-21.738282 31.988281-41.152344 0-19.417969-13.167969-36.363281-31.988281-41.152344v-41.214844c6.578125 3.777344 10.640625 10.777344 10.664062 18.363282 0 5.894531 4.777344 10.667968 10.667969 10.667968s10.664062-4.773437 10.664062-10.667968c-.070312-19.394532-13.214843-36.296875-31.996093-41.152344v-1.511719c0-5.890625-4.773438-10.664062-10.667969-10.664062-5.890625 0-10.667969 4.773437-10.667969 10.664062v1.511719c-18.8125 4.789062-31.988281 21.738281-31.988281 41.152344 0 19.417968 13.175781 36.363281 31.988281 41.152344v41.214843c-6.578125-3.777343-10.640625-10.773437-10.664062-18.363281zm42.664062 0c-.023437 7.589844-4.085937 14.585938-10.664062 18.363281v-36.730469c6.578125 3.777344 10.640625 10.78125 10.664062 18.367188zm-42.664062-64.003906c.023437-7.585938 4.085937-14.585938 10.664062-18.363282v36.734376c-6.578125-3.78125-10.640625-10.78125-10.664062-18.371094zm0 0" fill="#172554"/></svg>
